<svg version="1.1" xmlns="http://www.w3.org/2000/svg" viewBox="0 0 544.0153705236077 424.57204558827857" width="544.0153705236077" height="424.57204558827857">
  <!-- svg-source:excalidraw -->
  
  <defs>
    <style class="style-fonts">
      @font-face {
        font-family: "Virgil";
        src: url("https://excalidraw.com/Virgil.woff2");
      }
      @font-face {
        font-family: "Cascadia";
        src: url("https://excalidraw.com/Cascadia.woff2");
      }
      @font-face {
        font-family: "Assistant";
        src: url("https://excalidraw.com/Assistant-Regular.woff2");
      }
    </style>
    
  </defs>
  <rect x="0" y="0" width="544.0153705236077" height="424.57204558827857" fill="#ffffff"></rect><g stroke-linecap="round" transform="translate(25.563039710929957 88.24324555225192) rotate(0 44.583343505859375 39.58332061767578)"><path d="M40.96 0.65 C48.44 -0.27, 59.03 2.25, 66.1 5.65 C73.16 9.05, 79.56 14.8, 83.34 21.04 C87.11 27.28, 89.36 36.19, 88.76 43.08 C88.17 49.98, 84.66 56.94, 79.79 62.42 C74.92 67.91, 67.04 73.44, 59.54 75.99 C52.05 78.54, 42.42 79.12, 34.8 77.73 C27.18 76.33, 19.51 72.49, 13.82 67.62 C8.13 62.76, 2.5 55.34, 0.67 48.51 C-1.16 41.68, -0.2 33.33, 2.82 26.64 C5.85 19.95, 11.04 12.87, 18.81 8.37 C26.58 3.88, 43.31 0.76, 49.46 -0.34 C55.62 -1.45, 56.01 0.97, 55.72 1.73 M48.21 0.91 C55.98 0.91, 64.54 4.68, 70.9 8.57 C77.26 12.46, 83.48 17.86, 86.37 24.26 C89.26 30.67, 89.71 39.93, 88.24 46.98 C86.78 54.03, 83.11 61.44, 77.58 66.57 C72.06 71.69, 63.28 75.94, 55.09 77.73 C46.89 79.52, 36.26 79.41, 28.4 77.31 C20.54 75.22, 12.54 71, 7.93 65.15 C3.31 59.3, 0.96 49.56, 0.72 42.22 C0.48 34.87, 2.92 27.44, 6.49 21.09 C10.05 14.74, 15.5 7.81, 22.1 4.12 C28.7 0.43, 41.91 -0.29, 46.09 -1.04 C50.27 -1.8, 47.02 -1.2, 47.17 -0.4" stroke="#1e1e1e" stroke-width="2" fill="none"></path></g><g transform="translate(60.15315822951834 110.33693173928788) rotate(0 9.968040466308594 17.500000000000014)"><text x="9.968040466308594" y="24.528" font-family="Virgil, Segoe UI Emoji" font-size="28px" fill="#1e1e1e" text-anchor="middle" style="white-space: pre;" direction="ltr" dominant-baseline="alphabetic">2</text></g><g stroke-linecap="round" transform="translate(198.31080771244342 199.0765432817441) rotate(0 46.25 43.75)"><path d="M4.25 24.9 C4.25 24.9, 4.25 24.9, 4.25 24.9 M4.25 24.9 C4.25 24.9, 4.25 24.9, 4.25 24.9 M2.42 39.2 C9.69 28.06, 21.23 17.74, 32.6 4.49 M2.42 39.2 C13.1 26.37, 23.1 15.06, 32.6 4.49 M1.9 52 C14.48 36.82, 30.1 17.72, 46.51 0.68 M1.9 52 C11.14 40.92, 21.02 29.51, 46.51 0.68 M5.96 59.51 C23.65 39.5, 39.91 22.94, 55.17 2.91 M5.96 59.51 C19.22 45.18, 31.51 32.13, 55.17 2.91 M9.38 67.78 C22.82 51.59, 34.47 35.13, 63.83 5.14 M9.38 67.78 C25.12 48.97, 42.52 29.89, 63.83 5.14 M14.1 74.54 C36.18 46.65, 61.61 21.01, 71.84 8.12 M14.1 74.54 C27.93 58.31, 40.06 42.67, 71.84 8.12 M20.8 79.03 C42.12 58.52, 59.42 32.75, 77.22 14.12 M20.8 79.03 C41.04 54.89, 61 32.46, 77.22 14.12 M28.15 82.77 C44.83 65.19, 59.77 44.23, 82.6 20.13 M28.15 82.77 C40.23 67.8, 53.76 53.69, 82.6 20.13 M35.5 86.51 C51.24 68.96, 66.1 53.12, 87.98 26.13 M35.5 86.51 C54.46 64.02, 72.46 43.21, 87.98 26.13 M46.78 85.72 C63.3 65.93, 78.46 48.68, 90.08 35.91 M46.78 85.72 C64.53 67.99, 79.81 48.39, 90.08 35.91 M57.41 85.68 C68.62 72.42, 82.39 56.97, 92.18 45.68 M57.41 85.68 C68.67 71.93, 78.78 59.9, 92.18 45.68 M75.92 76.59 C79.64 72.56, 80.64 69.78, 85.76 65.27 M75.92 76.59 C79.18 73.53, 81.01 69.4, 85.76 65.27 M11.77 73.34 C11.77 73.34, 11.77 73.34, 11.77 73.34 M11.77 73.34 C11.77 73.34, 11.77 73.34, 11.77 73.34 M38.91 86.33 C30.15 76.65, 17.84 66.92, 4.19 56.15 M38.91 86.33 C31.53 78.14, 22.04 71.25, 4.19 56.15 M50.19 85.54 C32.83 73.44, 20.33 57.55, 2.65 44.21 M50.19 85.54 C38.1 73.31, 23.99 63.59, 2.65 44.21 M60.73 84.09 C43.7 68.04, 25 51.53, 3.37 34.23 M60.73 84.09 C37.34 64.95, 15.87 44.75, 3.37 34.23 M68.24 80.02 C44.37 59.29, 21.72 39.29, 4.84 24.91 M68.24 80.02 C45.13 60.48, 21.42 39.91, 4.84 24.91 M75.75 75.95 C54.26 56.52, 35.44 39.55, 10.09 18.88 M75.75 75.95 C56.68 59.98, 37.89 41.45, 10.09 18.88 M82.51 71.23 C63.37 55.54, 42.83 39.16, 15.34 12.84 M82.51 71.23 C60.57 52.03, 39.39 34.3, 15.34 12.84 M86.25 63.88 C60.05 40.87, 37.26 18.53, 21.34 7.46 M86.25 63.88 C62.52 44.5, 39.53 22.66, 21.34 7.46 M89.23 55.87 C68.98 38.37, 51.91 25.27, 29.61 4.04 M89.23 55.87 C68.01 36.14, 44.86 17.12, 29.61 4.04 M92.97 48.52 C81.82 36.92, 70.69 28.87, 38.63 1.29 M92.97 48.52 C73.89 33.58, 57.36 18.18, 38.63 1.29 M90.67 35.92 C81.39 25.08, 68.52 15.81, 49.92 0.5 M90.67 35.92 C81.62 28.17, 71.63 19.08, 49.92 0.5 M76.3 12.83 C74.78 11.23, 71.64 9.61, 68.75 6.27 M76.3 12.83 C73.55 10.32, 70.91 8.09, 68.75 6.27" stroke="#ffc9c9" stroke-width="1" fill="none"></path><path d="M45.08 -0.57 C52.98 -1.12, 63.85 3.01, 70.97 7.39 C78.08 11.77, 84.21 18.75, 87.79 25.73 C91.36 32.72, 93.39 41.48, 92.4 49.3 C91.41 57.12, 87.34 66.64, 81.83 72.67 C76.33 78.69, 67.32 83.16, 59.35 85.45 C51.38 87.74, 41.88 88.38, 34.01 86.42 C26.14 84.45, 17.59 79.65, 12.15 73.67 C6.71 67.69, 2.74 58.63, 1.39 50.53 C0.05 42.43, 0.85 32.22, 4.1 25.07 C7.35 17.93, 13.27 11.93, 20.91 7.67 C28.55 3.4, 44.7 0.68, 49.95 -0.51 C55.19 -1.71, 52.5 -0.45, 52.37 0.52 M27.87 4.52 C34.94 1.29, 45.7 0.48, 54.04 1.61 C62.38 2.75, 71.5 6.01, 77.9 11.34 C84.31 16.67, 90.49 26.04, 92.48 33.6 C94.47 41.17, 92.89 49.48, 89.84 56.73 C86.8 63.98, 80.66 71.95, 74.22 77.1 C67.77 82.25, 59.23 86.76, 51.18 87.61 C43.13 88.47, 33.61 85.68, 25.93 82.22 C18.25 78.76, 9.42 73.3, 5.1 66.85 C0.78 60.4, -0.46 51.56, 0 43.51 C0.47 35.45, 3.04 25.32, 7.89 18.51 C12.74 11.69, 25.66 5, 29.12 2.61 C32.58 0.21, 28.49 3.23, 28.66 4.14" stroke="#1e1e1e" stroke-width="2" fill="none"></path></g><g stroke-linecap="round" transform="translate(10 330.40541961171607) rotate(0 43.75 42.08331298828122)"><path d="M43.56 -0.43 C51.02 -0.95, 60.66 2.8, 67.13 6.81 C73.6 10.82, 78.99 16.92, 82.36 23.63 C85.74 30.34, 88.23 39.31, 87.37 47.04 C86.51 54.77, 82.41 64.27, 77.19 70.01 C71.96 75.75, 63.71 79.28, 56.02 81.47 C48.33 83.67, 38.69 84.99, 31.06 83.19 C23.44 81.4, 15.33 76.57, 10.28 70.71 C5.22 64.85, 1.72 55.48, 0.74 48.03 C-0.24 40.58, 1.21 32.88, 4.39 26.03 C7.57 19.17, 13.17 11.32, 19.83 6.91 C26.49 2.5, 39.83 0.58, 44.35 -0.44 C48.87 -1.46, 46.81 0.06, 46.94 0.76 M39.14 -0.15 C46.34 -1.61, 55.94 -0.27, 62.67 3.24 C69.4 6.75, 75.5 14.55, 79.5 20.9 C83.51 27.25, 86.37 33.75, 86.69 41.33 C87.01 48.92, 85.42 59.89, 81.41 66.4 C77.41 72.92, 70.23 77.54, 62.66 80.44 C55.09 83.33, 43.83 84.99, 35.99 83.76 C28.16 82.52, 21.55 77.85, 15.64 73.03 C9.73 68.2, 2.63 62.09, 0.52 54.82 C-1.59 47.55, 0.75 36.71, 3 29.41 C5.24 22.1, 8.32 15.7, 13.98 10.97 C19.65 6.24, 33.04 2.86, 36.99 1.03 C40.93 -0.8, 37.48 -0.56, 37.64 -0.02" stroke="#1e1e1e" stroke-width="2" fill="none"></path></g><g transform="translate(44.85404109164324 355.23133661118777) rotate(0 8.960037231445312 17.5)"><text x="8.960037231445312" y="24.528" font-family="Virgil, Segoe UI Emoji" font-size="28px" fill="#1e1e1e" text-anchor="middle" style="white-space: pre;" direction="ltr" dominant-baseline="alphabetic">4</text></g><g stroke-linecap="round" transform="translate(251.75675206356243 10) rotate(0 47.5 48.74999237060547)"><path d="M57.14 0.88 C64.65 1.81, 73.14 6.3, 79.21 11.79 C85.28 17.28, 90.99 26.05, 93.55 33.84 C96.11 41.63, 96.48 50.72, 94.57 58.54 C92.66 66.36, 87.35 74.62, 82.09 80.75 C76.83 86.88, 70.49 92.68, 63.02 95.3 C55.55 97.92, 45.13 98.06, 37.28 96.47 C29.44 94.89, 21.8 91.21, 15.94 85.8 C10.08 80.4, 4.6 71.82, 2.12 64.05 C-0.35 56.29, -0.55 47.08, 1.08 39.21 C2.71 31.33, 6.57 22.84, 11.89 16.8 C17.22 10.77, 24.8 5.51, 33.05 2.98 C41.3 0.44, 56.15 1.57, 61.37 1.59 C66.59 1.6, 64.75 2.25, 64.37 3.07 M67 3.66 C73.91 6.49, 80.06 14.6, 84.88 21.09 C89.71 27.59, 95.02 34.43, 95.93 42.63 C96.85 50.83, 93.58 62.69, 90.36 70.28 C87.14 77.88, 82.95 83.51, 76.63 88.18 C70.31 92.85, 60.65 97.26, 52.44 98.29 C44.24 99.32, 34.88 97.66, 27.4 94.36 C19.93 91.06, 12.22 85.15, 7.6 78.48 C2.97 71.81, 0.14 62.42, -0.36 54.34 C-0.87 46.26, 1.18 37.43, 4.57 29.99 C7.96 22.56, 13.81 14.85, 19.99 9.71 C26.17 4.57, 33.76 0.19, 41.63 -0.86 C49.5 -1.92, 62.83 2.2, 67.22 3.39 C71.61 4.58, 68.1 5.59, 68 6.28" stroke="#1e1e1e" stroke-width="2" fill="none"></path></g><g transform="translate(295.37516598015065 41.278542182557885) rotate(0 3.7940139770507812 17.5)"><text x="3.7940139770507812" y="24.528" font-family="Virgil, Segoe UI Emoji" font-size="28px" fill="#1e1e1e" text-anchor="middle" style="white-space: pre;" direction="ltr" dominant-baseline="alphabetic">1</text></g><g stroke-linecap="round"><g transform="translate(64.752227031433 176.08109624858375) rotate(0 -2.916656494140625 74.58331298828125)"><path d="M-2.47 -1.86 C-3.46 22.23, -4.01 121.52, -4.58 147.16" stroke="#e03131" stroke-width="2.5" fill="none" stroke-dasharray="8 10"></path></g><g transform="translate(64.752227031433 176.08109624858375) rotate(0 -2.916656494140625 74.58331298828125)"><path d="M-14.14 124.45 C-11.17 131.8, -4.88 138.12, -4.65 145.95" stroke="#e03131" stroke-width="2.5" fill="none"></path></g><g transform="translate(64.752227031433 176.08109624858375) rotate(0 -2.916656494140625 74.58331298828125)"><path d="M2.96 124.68 C-0.01 131.8, 0.34 138.04, -4.65 145.95" stroke="#e03131" stroke-width="2.5" fill="none"></path></g></g><mask></mask><g stroke-linecap="round"><g transform="translate(322.094590083973 98.58106573100562) rotate(0 -89.66216197958943 145.41665649414062)"><path d="M-0.03 2.79 C6.74 50.19, 79.43 234.03, 41.85 282.4 C4.27 330.76, -181.65 291.6, -225.52 292.96" stroke="#e03131" stroke-width="2.5" fill="none" stroke-dasharray="8 10"></path></g><g transform="translate(322.094590083973 98.58106573100562) rotate(0 -89.66216197958943 145.41665649414062)"><path d="M-199.36 284.64 C-209.81 287.54, -216.55 292.74, -225.69 293.26" stroke="#e03131" stroke-width="2.5" fill="none"></path></g><g transform="translate(322.094590083973 98.58106573100562) rotate(0 -89.66216197958943 145.41665649414062)"><path d="M-200.89 301.68 C-210.69 298.7, -216.9 298.02, -225.69 293.26" stroke="#e03131" stroke-width="2.5" fill="none"></path></g></g><mask></mask><g transform="translate(235.26580212782108 224.74772222514625) rotate(0 10.784042358398438 17.5)"><text x="0" y="24.528" font-family="Virgil, Segoe UI Emoji" font-size="28px" fill="#1e1e1e" text-anchor="start" style="white-space: pre;" direction="ltr" dominant-baseline="alphabetic">3</text></g><g stroke-linecap="round"><g transform="translate(105.18019610589704 152.74772222514625) rotate(0 49.5833740234375 32.08332824707031)"><path d="M0 0 C16.53 10.69, 82.64 53.47, 99.17 64.17 M0 0 C16.53 10.69, 82.64 53.47, 99.17 64.17" stroke="#1e1e1e" stroke-width="4" fill="none"></path></g><g transform="translate(105.18019610589704 152.74772222514625) rotate(0 49.5833740234375 32.08332824707031)"><path d="M74.8 58.58 C81.71 60.17, 88.61 61.75, 99.17 64.17 M74.8 58.58 C83 60.46, 91.19 62.34, 99.17 64.17" stroke="#1e1e1e" stroke-width="4" fill="none"></path></g><g transform="translate(105.18019610589704 152.74772222514625) rotate(0 49.5833740234375 32.08332824707031)"><path d="M84.09 44.23 C88.36 49.88, 92.64 55.53, 99.17 64.17 M84.09 44.23 C89.16 50.93, 94.23 57.64, 99.17 64.17" stroke="#1e1e1e" stroke-width="4" fill="none"></path></g></g><mask></mask><g stroke-linecap="round"><g transform="translate(296.7342489732281 111.48650417778936) rotate(0 -19.876146516821393 44.583312988281236)"><path d="M0 0 C-6.63 14.86, -33.13 74.31, -39.75 89.17 M0 0 C-6.63 14.86, -33.13 74.31, -39.75 89.17" stroke="#1e1e1e" stroke-width="4" fill="none"></path></g><g transform="translate(296.7342489732281 111.48650417778936) rotate(0 -19.876146516821393 44.583312988281236)"><path d="M-38 64.23 C-38.69 74.06, -39.38 83.9, -39.75 89.17 M-38 64.23 C-38.47 71.02, -38.95 77.81, -39.75 89.17" stroke="#1e1e1e" stroke-width="4" fill="none"></path></g><g transform="translate(296.7342489732281 111.48650417778936) rotate(0 -19.876146516821393 44.583312988281236)"><path d="M-22.38 71.19 C-29.23 78.28, -36.08 85.37, -39.75 89.17 M-22.38 71.19 C-27.11 76.08, -31.84 80.98, -39.75 89.17" stroke="#1e1e1e" stroke-width="4" fill="none"></path></g></g><mask></mask><g stroke-linecap="round"><g transform="translate(218.1532262370397 282.4549195122074) rotate(0 -62.916717529296875 36.25)"><path d="M0 0 C-20.97 12.08, -104.86 60.42, -125.83 72.5 M0 0 C-20.97 12.08, -104.86 60.42, -125.83 72.5" stroke="#1e1e1e" stroke-width="4" fill="none"></path></g><g transform="translate(218.1532262370397 282.4549195122074) rotate(0 -62.916717529296875 36.25)"><path d="M-109.75 53.36 C-114.57 59.1, -119.4 64.85, -125.83 72.5 M-109.75 53.36 C-116.17 61.01, -122.6 68.65, -125.83 72.5" stroke="#1e1e1e" stroke-width="4" fill="none"></path></g><g transform="translate(218.1532262370397 282.4549195122074) rotate(0 -62.916717529296875 36.25)"><path d="M-101.21 68.18 C-108.6 69.48, -115.99 70.77, -125.83 72.5 M-101.21 68.18 C-111.04 69.91, -120.88 71.63, -125.83 72.5" stroke="#1e1e1e" stroke-width="4" fill="none"></path></g></g><mask></mask><g stroke-opacity="0.5" fill-opacity="0.5" transform="translate(398.77478519645933 322.5540395953634) rotate(0 67.62029266357416 17.5)"><text x="0" y="24.528" font-family="Virgil, Segoe UI Emoji" font-size="28px" fill="#e03131" text-anchor="start" style="white-space: pre;" direction="ltr" dominant-baseline="alphabetic">new edges</text></g><g stroke-opacity="0.5" fill-opacity="0.5" transform="translate(135.44153324333433 134.55403959536338) rotate(0 64.30227661132812 17.5)"><text x="0" y="24.528" font-family="Virgil, Segoe UI Emoji" font-size="28px" fill="#e03131" text-anchor="start" style="white-space: pre;" direction="ltr" dominant-baseline="alphabetic">old edges</text></g></svg>